<svg width="90.000000" height="80.000000" viewBox="0 0 90 80" fill="none" xmlns="http://www.w3.org/2000/svg" xmlns:xlink="http://www.w3.org/1999/xlink">
	<desc>
			Created with Pixso.
	</desc>
	<defs>
		<filter id="filter_21_44_dd" x="0.000000" y="0.000000" width="90.000000" height="80.000000" filterUnits="userSpaceOnUse" color-interpolation-filters="sRGB">
			<feFlood flood-opacity="0" result="BackgroundImageFix"/>
			<feColorMatrix in="SourceAlpha" type="matrix" values="0 0 0 0 0 0 0 0 0 0 0 0 0 0 0 0 0 0 127 0" result="hardAlpha"/>
			<feOffset dx="0" dy="4"/>
			<feGaussianBlur stdDeviation="1.66667"/>
			<feComposite in2="hardAlpha" operator="out" k2="-1" k3="1"/>
			<feColorMatrix type="matrix" values="0 0 0 0 0 0 0 0 0 0 0 0 0 0 0 0 0 0 0.45 0"/>
			<feBlend mode="normal" in2="BackgroundImageFix" result="effect_dropShadow_1"/>
			<feBlend mode="normal" in="SourceGraphic" in2="effect_dropShadow_1" result="shape"/>
		</filter>
		<clipPath id="clip21_42">
			<rect id="button - user" width="58.181816" height="62.921337" transform="translate(15.909180 8.078674)" fill="white" fill-opacity="0"/>
		</clipPath>
	</defs>
	<rect id="button_user" width="80.000000" height="70.000000" transform="translate(5.000000 1.000000)" fill="#FFFFFF" fill-opacity="0"/>
	<g filter="url(#filter_21_44_dd)">
		<rect id="Прямоугольник 8" x="5.000000" y="1.000000" rx="10.000000" width="80.000008" height="69.999992" fill="#F8D48F" fill-opacity="1.000000"/>
		<rect id="Прямоугольник 8" x="7.500000" y="3.500000" rx="10.000000" width="75.000008" height="64.999992" stroke="#000000" stroke-opacity="1.000000" stroke-width="5.000000"/>
	</g>
	<g clip-path="url(#clip21_42)">
		<path id="path" d="M68.77 54.29C65.31 47.82 59.98 43.18 53.75 40.98C54.26 40.65 54.75 40.29 55.23 39.91C55.7 39.52 56.15 39.11 56.58 38.67C57.02 38.23 57.42 37.77 57.81 37.28C58.2 36.8 58.56 36.29 58.89 35.76C59.22 35.23 59.53 34.68 59.81 34.12C60.09 33.55 60.34 32.97 60.56 32.38C60.78 31.78 60.97 31.18 61.13 30.56C61.29 29.94 61.42 29.32 61.52 28.69C61.62 28.06 61.68 27.42 61.72 26.78C61.75 26.14 61.75 25.5 61.72 24.86C61.69 24.22 61.63 23.58 61.54 22.95C61.44 22.32 61.32 21.69 61.16 21.08C61 20.46 60.81 19.85 60.6 19.26C60.38 18.66 60.13 18.08 59.85 17.51C59.58 16.94 59.27 16.4 58.94 15.87C58.61 15.33 58.25 14.82 57.87 14.33C57.49 13.85 57.08 13.38 56.65 12.94C56.22 12.5 55.77 12.08 55.3 11.69C54.83 11.31 54.34 10.95 53.83 10.62C53.32 10.28 52.8 9.98 52.26 9.72C51.73 9.45 51.18 9.21 50.62 9C50.05 8.8 49.48 8.63 48.91 8.49C48.33 8.35 47.74 8.25 47.15 8.18C46.56 8.11 45.97 8.07 45.38 8.07C44.79 8.07 44.2 8.11 43.61 8.18C43.02 8.25 42.44 8.35 41.86 8.49C41.28 8.63 40.71 8.8 40.15 9C39.59 9.21 39.04 9.45 38.5 9.72C37.96 9.98 37.44 10.28 36.93 10.62C36.42 10.95 35.93 11.31 35.46 11.69C34.99 12.08 34.54 12.5 34.11 12.94C33.68 13.38 33.28 13.85 32.89 14.33C32.51 14.82 32.15 15.33 31.82 15.87C31.49 16.4 31.19 16.94 30.91 17.51C30.63 18.08 30.39 18.66 30.17 19.26C29.95 19.85 29.76 20.46 29.6 21.08C29.45 21.69 29.32 22.32 29.23 22.95C29.13 23.58 29.07 24.22 29.04 24.86C29.01 25.5 29.01 26.14 29.04 26.78C29.08 27.42 29.14 28.06 29.24 28.69C29.34 29.32 29.47 29.94 29.63 30.56C29.79 31.18 29.98 31.78 30.2 32.38C30.42 32.97 30.67 33.55 30.95 34.12C31.23 34.68 31.54 35.23 31.87 35.76C32.21 36.29 32.57 36.8 32.95 37.28C33.34 37.77 33.75 38.23 34.18 38.67C34.61 39.11 35.06 39.52 35.54 39.91C36.01 40.29 36.5 40.65 37.01 40.98C30.79 43.17 25.45 47.81 21.99 54.29C21.86 54.51 21.78 54.76 21.74 55.02C21.71 55.28 21.72 55.54 21.78 55.8C21.84 56.06 21.94 56.29 22.09 56.5C22.24 56.71 22.42 56.89 22.63 57.02C22.84 57.15 23.07 57.23 23.31 57.27C23.56 57.3 23.8 57.28 24.03 57.21C24.27 57.14 24.48 57.02 24.68 56.85C24.87 56.69 25.02 56.49 25.14 56.25C29.42 48.25 36.99 43.47 45.38 43.47C53.77 43.47 61.34 48.25 65.62 56.25C65.74 56.49 65.9 56.69 66.09 56.85C66.28 57.02 66.49 57.14 66.73 57.21C66.97 57.28 67.21 57.3 67.45 57.27C67.69 57.23 67.92 57.15 68.13 57.02C68.34 56.89 68.52 56.71 68.67 56.5C68.82 56.29 68.92 56.06 68.98 55.8C69.05 55.54 69.06 55.28 69.02 55.02C68.98 54.76 68.9 54.51 68.77 54.29ZM32.65 25.78C32.65 24.87 32.74 23.98 32.9 23.09C33.06 22.21 33.3 21.34 33.62 20.51C33.94 19.67 34.33 18.88 34.8 18.13C35.26 17.38 35.79 16.68 36.38 16.04C36.97 15.41 37.62 14.83 38.31 14.33C39.01 13.83 39.74 13.41 40.51 13.06C41.28 12.71 42.08 12.45 42.9 12.28C43.72 12.1 44.55 12.01 45.38 12.01C46.22 12.01 47.04 12.1 47.86 12.28C48.68 12.45 49.48 12.71 50.25 13.06C51.02 13.41 51.76 13.83 52.45 14.33C53.15 14.83 53.79 15.41 54.38 16.04C54.97 16.68 55.5 17.38 55.96 18.13C56.43 18.88 56.82 19.67 57.14 20.51C57.46 21.34 57.7 22.21 57.86 23.09C58.03 23.98 58.11 24.87 58.11 25.78C58.11 26.68 58.03 27.58 57.86 28.46C57.7 29.35 57.46 30.21 57.14 31.04C56.82 31.88 56.43 32.67 55.96 33.42C55.5 34.18 54.97 34.87 54.38 35.51C53.79 36.15 53.15 36.72 52.45 37.22C51.76 37.72 51.02 38.15 50.25 38.49C49.48 38.84 48.68 39.1 47.86 39.28C47.04 39.45 46.22 39.54 45.38 39.54C44.55 39.54 43.72 39.45 42.9 39.27C42.08 39.1 41.28 38.84 40.51 38.49C39.74 38.14 39.01 37.72 38.31 37.22C37.62 36.71 36.98 36.14 36.39 35.51C35.8 34.87 35.27 34.17 34.8 33.42C34.34 32.67 33.95 31.88 33.63 31.04C33.31 30.21 33.06 29.35 32.9 28.46C32.74 27.58 32.66 26.68 32.65 25.78Z" fill="#000000" fill-opacity="1.000000" fill-rule="nonzero"/>
	</g>
</svg>
